# xmcd CD database file
#
# Track frame offsets:
#	150
#	24626
#	45389
#	68268
#	89700
#	112557
#	134162
#	159198
#	181278
#	201976
#	223042
#	248381
#	269878
#	291900
#	316082
#
# Disc length: 4585 seconds
#
# Revision: 0
# Processed by: cddbd v1.5.2PL0 Copyright (c) Steve Scherf et al.
# Submitted via: CDex 1.70beta2
#
DISCID=d311e70f
DTITLE=Michael Köhlmeier - Märchenwelt - Verwandelt, verzaubert, verflucht (2)
DYEAR=2012
DGENRE=Hörbuch
TTITLE0=Die kleine Meerjungfrau (Hans Christian Andersen)
TTITLE1=Die kleine Meerjungfrau (Hans Christian Andersen)
TTITLE2=Die kleine Meerjungfrau (Hans Christian Andersen)
TTITLE3=Die kleine Meerjungfrau (Hans Christian Andersen)
TTITLE4=Die kleine Meerjungfrau (Hans Christian Andersen)
TTITLE5=Die kleine Meerjungfrau (Hans Christian Andersen)
TTITLE6=Die kleine Meerjungfrau (Hans Christian Andersen)
TTITLE7=Die kleine Meerjungfrau (Hans Christian Andersen)
TTITLE8=Die kleine Meerjungfrau (Hans Christian Andersen)
TTITLE9=Die kleine Meerjungfrau (Hans Christian Andersen)
TTITLE10=Die kleine Meerjungfrau (Hans Christian Andersen)
TTITLE11=Die kleine Meerjungfrau (Hans Christian Andersen)
TTITLE12=Die kleine Meerjungfrau (Hans Christian Andersen)
TTITLE13=Ulfhild, die Elbenfrau (aus Island)
TTITLE14=Ulfhild, die Elbenfrau (aus Island)
EXTD=YEAR: 2012
EXTT0=
EXTT1=
EXTT2=
EXTT3=
EXTT4=
EXTT5=
EXTT6=
EXTT7=
EXTT8=
EXTT9=
EXTT10=
EXTT11=
EXTT12=
EXTT13=
EXTT14=
PLAYORDER=
